:SAMPLES-PER-SECOND 30
:FULLY-SPECIFIED
:DEGREES
861
root  -0.641903 34.1357 -18.7836 53.1141 86.4547 30.2157
LeftUpLeg  -34.9256 14.6114 -8.85055
LeftLeg  17.9562 8.98714 2.27388
LeftFoot  2.65 -0.00113901 0.0776905
LeftToes  -10.1074 7.65994e-007 1.12379e-007
Spine  11.9876 -4.58064 1.27697
Spine1  21.6274 -11.9786 6.81667
RightShoulder  0.0772843 6.32061 -3.48209
RightArm  14.9331 -14.284 74.1939
RightForeArm  85.9095 79.8569 95.0232
RightHand  -0.874228 -6.53676 15.5736
LeftShoulder1  0.286554 -0.666073 3.37511
LeftArm  -3.03301 -33.1279 -74.8068
LeftForeArm  123.223 -60.8407 -161.267
LeftHand  0.969997 14.1502 7.42987
HEad  -3.9266 -13.6793 0.289607
RightUpLeg  -37.5263 -12.8869 3.83388
RightLeg  15.3667 19.9122 4.03683
RightFoot  8.16438 -0.16225 2.65044
RightToes  -18.4474 -0.0729741 -0.168515
862
root  -0.6171 34.1407 -18.8348 50.7547 86.1855 28.2364
LeftUpLeg  -34.4569 14.3415 -8.57316
LeftLeg  18.1157 8.94074 2.28858
LeftFoot  2.582 -0.000742916 0.0618118
LeftToes  -10.3747 7.65994e-007 1.12379e-007
Spine  11.79 -4.55573 1.37308
Spine1  21.2405 -11.8995 6.90641
RightShoulder  0.0751826 6.39268 -3.56157
RightArm  14.8527 -14.5133 74.144
RightForeArm  85.8085 79.8581 94.9332
RightHand  -0.866113 -6.5234 15.4647
LeftShoulder1  0.280595 -0.359201 3.62647
LeftArm  -2.47322 -34.5901 -75.632
LeftForeArm  123.496 -59.9238 -161.967
LeftHand  0.90551 14.4281 6.77146
HEad  -2.91436 -14.036 0.0654335
RightUpLeg  -37.0031 -12.4447 3.42799
RightLeg  15.182 19.6752 3.92627
RightFoot  8.21415 -0.161499 2.62616
RightToes  -18.8598 -0.0751942 -0.169293
863
root  -0.599697 34.1464 -18.8951 48.1056 85.8917 26.0842
LeftUpLeg  -33.9039 14.1274 -8.23361
LeftLeg  18.3473 8.64713 2.2511
LeftFoot  2.4734 0.000675725 0.0308383
LeftToes  -10.5661 7.65994e-007 1.12379e-007
Spine  11.6347 -4.49945 1.44245
Spine1  20.955 -11.744 6.93272
RightShoulder  0.0725799 6.41871 -3.54857
RightArm  14.8898 -14.5985 74.018
RightForeArm  86.0853 79.8559 95.1613
RightHand  -0.858249 -6.47806 15.4328
LeftShoulder1  0.274971 -0.137596 3.74274
LeftArm  -1.633 -35.5977 -76.2311
LeftForeArm  123.467 -59.426 -162.332
LeftHand  0.895404 14.5693 6.623
HEad  -1.66316 -14.4517 0.0144101
RightUpLeg  -36.3217 -12.0317 3.0198
RightLeg  14.8544 19.5367 3.78636
RightFoot  8.35565 -0.165673 2.65072
RightToes  -19.2043 -0.0767184 -0.170394
864
root  -0.587592 34.1498 -18.9645 45.5592 85.5742 24.0393
LeftUpLeg  -33.3115 13.7355 -7.81758
LeftLeg  18.5502 8.39628 2.21787
LeftFoot  2.36058 0.00173103 0.00628079
LeftToes  -10.758 7.65994e-007 1.12379e-007
Spine  11.4549 -4.42536 1.51034
Spine1  20.6367 -11.5378 6.93094
RightShoulder  0.0697813 6.4397 -3.65226
RightArm  14.8808 -14.7609 73.9571
RightForeArm  86.6024 79.8518 95.5379
RightHand  -0.857155 -6.37352 15.6579
LeftShoulder1  0.268391 -0.0603067 4.03403
LeftArm  -0.746166 -35.8834 -76.8791
LeftForeArm  124.099 -59.178 -162.506
LeftHand  0.931168 14.5317 6.92055
HEad  -0.733622 -15.1471 -0.0859189
RightUpLeg  -35.6275 -11.6407 2.62359
RightLeg  14.4732 19.4664 3.64207
RightFoot  8.52511 -0.172042 2.69764
RightToes  -19.5739 -0.0778516 -0.172633
865
root  -0.58651 34.1511 -19.0412 44.0106 85.2705 23.0279
LeftUpLeg  -32.6623 13.1107 -7.33683
LeftLeg  18.7252 8.04885 2.15291
LeftFoot  2.27109 0.00261555 -0.01488
LeftToes  -10.9356 7.65994e-007 1.12379e-007
Spine  11.278 -4.36442 1.52349
Spine1  20.365 -11.3322 6.7879
RightShoulder  0.0670205 6.44129 -3.68188
RightArm  15.0138 -14.871 73.8762
RightForeArm  87.0402 79.8469 95.963
RightHand  -0.851443 -6.36653 15.5737
LeftShoulder1  0.261999 0.226162 4.22349
LeftArm  0.571856 -36.0808 -77.7091
LeftForeArm  125.323 -59.151 -162.519
LeftHand  0.954883 14.1892 7.28745
HEad  0.0646903 -15.6839 -0.0767317
RightUpLeg  -35.0489 -11.6754 2.36431
RightLeg  14.3216 19.7738 3.64438
RightFoot  8.59829 -0.18054 2.77855
RightToes  -19.8381 -0.0794387 -0.17552
866
root  -0.601218 34.1522 -19.1246 42.5892 84.9064 21.9892
LeftUpLeg  -32.0971 12.2737 -6.74438
LeftLeg  18.7788 7.33649 1.97075
LeftFoot  2.26417 0.00357042 -0.0364179
LeftToes  -11.4151 7.65994e-007 1.12379e-007
Spine  11.034 -4.24913 1.52033
Spine1  19.9715 -11.0073 6.60185
RightShoulder  0.0641855 6.41246 -3.7184
RightArm  15.049 -15.1202 73.8453
RightForeArm  87.4878 79.841 96.4432
RightHand  -0.850938 -6.36357 15.5718
LeftShoulder1  0.253489 0.312192 4.25091
LeftArm  1.7388 -36.085 -78.4107
LeftForeArm  125.449 -58.909 -162.688
LeftHand  0.981982 14.0368 7.59013
HEad  0.775458 -15.9759 0.030295
RightUpLeg  -34.6433 -11.4959 2.04061
RightLeg  14.1436 19.913 3.6065
RightFoot  8.72163 -0.18772 2.85116
RightToes  -20.1551 -0.0823248 -0.178068
867
root  -0.62352 34.1473 -19.2194 41.6401 84.5196 21.6295
LeftUpLeg  -31.2789 11.2711 -6.06979
LeftLeg  18.736 6.41192 1.71827
LeftFoot  2.30513 0.00485116 -0.0623308
LeftToes  -11.9418 7.65994e-007 1.12379e-007
Spine  10.882 -4.18021 1.45867
Spine1  19.7569 -10.7925 6.3454
RightShoulder  0.0615722 6.3766 -3.70272
RightArm  15.1738 -15.1632 73.8564
RightForeArm  87.1206 79.8451 96.1628
RightHand  -0.847605 -6.38769 15.5172
LeftShoulder1  0.247109 0.360856 4.28874
LeftArm  2.53174 -36.0172 -78.9973
LeftForeArm  125.743 -58.6966 -162.834
LeftHand  1.00872 13.9362 7.86556
HEad  1.14847 -16.1554 0.189292
RightUpLeg  -34.0045 -10.9414 1.4171
RightLeg  13.9428 19.6373 3.48914
RightFoot  8.83156 -0.190633 2.84555
RightToes  -21.1874 -0.0881767 -0.1863
